<mxfile host="app.diagrams.net" modified="2021-05-04T13:31:41.319Z" agent="5.0 (Macintosh; Intel Mac OS X 10_15_7) AppleWebKit/537.36 (KHTML, like Gecko) Chrome/90.0.4430.85 Safari/537.36" etag="nQty0tLp_StaTQAMes-c" version="14.6.9" type="github">
  <diagram id="OVftnZgLhKB68KdpVi7H" name="Page-1">
    <mxGraphModel dx="1018" dy="800" grid="1" gridSize="10" guides="1" tooltips="1" connect="1" arrows="1" fold="1" page="1" pageScale="1" pageWidth="827" pageHeight="1169" math="0" shadow="0">
      <root>
        <mxCell id="0" />
        <mxCell id="1" parent="0" />
        <mxCell id="MnJpBCb9XRixwp29BhQ0-1" value="客户" style="shape=umlActor;verticalLabelPosition=bottom;verticalAlign=top;html=1;outlineConnect=0;" vertex="1" parent="1">
          <mxGeometry x="270" y="180" width="30" height="60" as="geometry" />
        </mxCell>
        <mxCell id="MnJpBCb9XRixwp29BhQ0-19" style="edgeStyle=orthogonalEdgeStyle;rounded=0;orthogonalLoop=1;jettySize=auto;html=1;exitX=0;exitY=1;exitDx=0;exitDy=0;entryX=1;entryY=0;entryDx=0;entryDy=0;" edge="1" parent="1" source="MnJpBCb9XRixwp29BhQ0-3" target="MnJpBCb9XRixwp29BhQ0-5">
          <mxGeometry relative="1" as="geometry">
            <Array as="points">
              <mxPoint x="520" y="320" />
              <mxPoint x="345" y="320" />
            </Array>
          </mxGeometry>
        </mxCell>
        <mxCell id="MnJpBCb9XRixwp29BhQ0-20" value="6. 返回：登出成功" style="edgeLabel;html=1;align=center;verticalAlign=middle;resizable=0;points=[];" vertex="1" connectable="0" parent="MnJpBCb9XRixwp29BhQ0-19">
          <mxGeometry x="0.1935" y="2" relative="1" as="geometry">
            <mxPoint y="-17" as="offset" />
          </mxGeometry>
        </mxCell>
        <mxCell id="MnJpBCb9XRixwp29BhQ0-3" value="系统键盘和鼠标" style="rounded=0;whiteSpace=wrap;html=1;" vertex="1" parent="1">
          <mxGeometry x="520" y="195" width="120" height="30" as="geometry" />
        </mxCell>
        <mxCell id="MnJpBCb9XRixwp29BhQ0-11" style="edgeStyle=orthogonalEdgeStyle;rounded=0;orthogonalLoop=1;jettySize=auto;html=1;entryX=1;entryY=0.5;entryDx=0;entryDy=0;" edge="1" parent="1" source="MnJpBCb9XRixwp29BhQ0-4" target="MnJpBCb9XRixwp29BhQ0-5">
          <mxGeometry relative="1" as="geometry" />
        </mxCell>
        <mxCell id="MnJpBCb9XRixwp29BhQ0-4" value="账户对象" style="rounded=0;whiteSpace=wrap;html=1;" vertex="1" parent="1">
          <mxGeometry x="520" y="360" width="120" height="30" as="geometry" />
        </mxCell>
        <mxCell id="MnJpBCb9XRixwp29BhQ0-13" style="edgeStyle=orthogonalEdgeStyle;rounded=0;orthogonalLoop=1;jettySize=auto;html=1;exitX=0.5;exitY=0;exitDx=0;exitDy=0;startArrow=none;" edge="1" parent="1" source="MnJpBCb9XRixwp29BhQ0-15" target="MnJpBCb9XRixwp29BhQ0-1">
          <mxGeometry relative="1" as="geometry" />
        </mxCell>
        <mxCell id="MnJpBCb9XRixwp29BhQ0-5" value="系统屏幕" style="rounded=0;whiteSpace=wrap;html=1;" vertex="1" parent="1">
          <mxGeometry x="225" y="360" width="120" height="30" as="geometry" />
        </mxCell>
        <mxCell id="MnJpBCb9XRixwp29BhQ0-6" value="" style="endArrow=classic;html=1;entryX=0;entryY=0.5;entryDx=0;entryDy=0;" edge="1" parent="1" source="MnJpBCb9XRixwp29BhQ0-1" target="MnJpBCb9XRixwp29BhQ0-3">
          <mxGeometry width="50" height="50" relative="1" as="geometry">
            <mxPoint x="350" y="280" as="sourcePoint" />
            <mxPoint x="480" y="200" as="targetPoint" />
          </mxGeometry>
        </mxCell>
        <mxCell id="MnJpBCb9XRixwp29BhQ0-7" value="1. 账户名和密码&lt;br&gt;5. 登出系统" style="text;html=1;align=left;verticalAlign=middle;resizable=0;points=[];autosize=1;strokeColor=none;" vertex="1" parent="1">
          <mxGeometry x="363.5" y="170" width="100" height="30" as="geometry" />
        </mxCell>
        <mxCell id="MnJpBCb9XRixwp29BhQ0-8" value="" style="endArrow=classic;html=1;exitX=0.5;exitY=1;exitDx=0;exitDy=0;entryX=0.5;entryY=0;entryDx=0;entryDy=0;startArrow=none;" edge="1" parent="1" source="MnJpBCb9XRixwp29BhQ0-9" target="MnJpBCb9XRixwp29BhQ0-4">
          <mxGeometry width="50" height="50" relative="1" as="geometry">
            <mxPoint x="560" y="300" as="sourcePoint" />
            <mxPoint x="610" y="250" as="targetPoint" />
          </mxGeometry>
        </mxCell>
        <mxCell id="MnJpBCb9XRixwp29BhQ0-12" value="3. 返回：登录成功" style="text;html=1;align=center;verticalAlign=middle;resizable=0;points=[];autosize=1;strokeColor=none;" vertex="1" parent="1">
          <mxGeometry x="375" y="350" width="110" height="20" as="geometry" />
        </mxCell>
        <mxCell id="MnJpBCb9XRixwp29BhQ0-15" value="&lt;div style=&quot;text-align: left&quot;&gt;&lt;span&gt;4. 显示登录成功，等待客户登出&lt;/span&gt;&lt;/div&gt;&lt;div style=&quot;text-align: left&quot;&gt;&lt;span&gt;7. 显示登出成功&lt;/span&gt;&lt;/div&gt;" style="text;html=1;align=center;verticalAlign=middle;resizable=0;points=[];autosize=1;strokeColor=none;" vertex="1" parent="1">
          <mxGeometry x="195" y="275" width="180" height="30" as="geometry" />
        </mxCell>
        <mxCell id="MnJpBCb9XRixwp29BhQ0-16" value="" style="edgeStyle=orthogonalEdgeStyle;rounded=0;orthogonalLoop=1;jettySize=auto;html=1;exitX=0.5;exitY=0;exitDx=0;exitDy=0;endArrow=none;" edge="1" parent="1" source="MnJpBCb9XRixwp29BhQ0-5" target="MnJpBCb9XRixwp29BhQ0-15">
          <mxGeometry relative="1" as="geometry">
            <mxPoint x="330" y="360" as="sourcePoint" />
            <mxPoint x="285" y="240" as="targetPoint" />
          </mxGeometry>
        </mxCell>
        <mxCell id="MnJpBCb9XRixwp29BhQ0-9" value="2. 验证账户信息" style="text;html=1;align=center;verticalAlign=middle;resizable=0;points=[];autosize=1;strokeColor=none;" vertex="1" parent="1">
          <mxGeometry x="530" y="280" width="100" height="20" as="geometry" />
        </mxCell>
        <mxCell id="MnJpBCb9XRixwp29BhQ0-18" value="" style="endArrow=none;html=1;exitX=0.5;exitY=1;exitDx=0;exitDy=0;entryX=0.5;entryY=0;entryDx=0;entryDy=0;" edge="1" parent="1" source="MnJpBCb9XRixwp29BhQ0-3" target="MnJpBCb9XRixwp29BhQ0-9">
          <mxGeometry width="50" height="50" relative="1" as="geometry">
            <mxPoint x="580" y="225" as="sourcePoint" />
            <mxPoint x="580" y="360" as="targetPoint" />
          </mxGeometry>
        </mxCell>
      </root>
    </mxGraphModel>
  </diagram>
</mxfile>
